<svg width="136" height="51" viewBox="0 0 136 51" fill="none" xmlns="http://www.w3.org/2000/svg">
<g clip-path="url(#clip0_98_76)">
<path d="M13.1614 20.814C13.1311 13.7599 19.5194 8.24552 26.4899 9.63043C31.7646 10.6334 35.6422 15.5739 35.5899 20.814C35.6422 26.0542 31.7663 30.9964 26.4899 31.9977C19.5194 33.3809 13.1294 27.8682 13.1614 20.814ZM22.9448 20.814C22.9211 23.1598 24.1428 25.5477 26.4899 26.458C28.098 27.1025 30.0772 26.909 31.5807 25.8909C35.1444 23.5401 35.1444 18.088 31.5807 15.7372C29.4344 14.2664 26.3853 14.5676 24.6507 16.3833C23.4442 17.6118 22.9549 19.1885 22.9448 20.814Z" fill="#967ADC"/>
<path d="M38.7857 31.752C32.9508 43.1897 17.5688 45.2645 8.06388 36.9029C-4.14419 26.1669 -0.286879 6.24977 15.1592 1.03321C23.4071 -1.80728 33.3237 1.35126 37.7631 8.82607C38.3436 9.79534 38.0264 11.049 37.0544 11.6279C36.2546 12.1058 35.2709 11.9695 34.6145 11.3805C32.2691 9.39821 29.4394 7.96114 26.392 7.52867C17.7949 6.1488 9.74618 12.7738 10.1208 21.541C10.4532 29.7714 18.1526 35.6223 26.2452 34.3603C28.3561 34.0254 30.3843 33.2749 32.2218 32.097C33.3861 31.3751 34.4542 30.4579 35.4228 29.4887L35.5257 29.3877C37.208 27.8211 39.7559 29.6973 38.7857 31.7537V31.752Z" fill="#967ADC"/>
<path d="M10.8058 34.3502C9.59938 36.213 8.12462 37.8486 6.57056 39.417C5.62564 40.3728 4.59129 41.2377 3.30889 41.7308C1.35155 42.451 -0.582165 40.4737 0.161962 38.552C0.671545 37.2799 1.55235 36.2601 2.52258 35.3295C4.11545 33.7999 5.77413 32.3511 7.65722 31.1714C9.7563 29.9228 12.0731 32.3073 10.8042 34.3502H10.8058Z" fill="#967ADC"/>
</g>
<path d="M46.0117 6V33H42.7422V6H46.0117ZM62.4473 29.748V19.957C62.4473 19.207 62.2949 18.5566 61.9902 18.0059C61.6973 17.4434 61.252 17.0098 60.6543 16.7051C60.0566 16.4004 59.3184 16.248 58.4395 16.248C57.6191 16.248 56.8984 16.3887 56.2773 16.6699C55.668 16.9512 55.1875 17.3203 54.8359 17.7773C54.4961 18.2344 54.3262 18.7266 54.3262 19.2539H51.0742C51.0742 18.5742 51.25 17.9004 51.6016 17.2324C51.9531 16.5645 52.457 15.9609 53.1133 15.4219C53.7812 14.8711 54.5781 14.4375 55.5039 14.1211C56.4414 13.793 57.4844 13.6289 58.6328 13.6289C60.0156 13.6289 61.2344 13.8633 62.2891 14.332C63.3555 14.8008 64.1875 15.5098 64.7852 16.459C65.3945 17.3965 65.6992 18.5742 65.6992 19.9922V28.8516C65.6992 29.4844 65.752 30.1582 65.8574 30.873C65.9746 31.5879 66.1445 32.2031 66.3672 32.7188V33H62.9746C62.8105 32.625 62.6816 32.127 62.5879 31.5059C62.4941 30.873 62.4473 30.2871 62.4473 29.748ZM63.0098 21.4688L63.0449 23.7539H59.7578C58.832 23.7539 58.0059 23.8301 57.2793 23.9824C56.5527 24.123 55.9434 24.3398 55.4512 24.6328C54.959 24.9258 54.584 25.2949 54.3262 25.7402C54.0684 26.1738 53.9395 26.6836 53.9395 27.2695C53.9395 27.8672 54.0742 28.4121 54.3438 28.9043C54.6133 29.3965 55.0176 29.7891 55.5566 30.082C56.1074 30.3633 56.7812 30.5039 57.5781 30.5039C58.5742 30.5039 59.4531 30.293 60.2148 29.8711C60.9766 29.4492 61.5801 28.9336 62.0254 28.3242C62.4824 27.7148 62.7285 27.123 62.7637 26.5488L64.1523 28.1133C64.0703 28.6055 63.8477 29.1504 63.4844 29.748C63.1211 30.3457 62.6348 30.9199 62.0254 31.4707C61.4277 32.0098 60.7129 32.4609 59.8809 32.8242C59.0605 33.1758 58.1348 33.3516 57.1035 33.3516C55.8145 33.3516 54.6836 33.0996 53.7109 32.5957C52.75 32.0918 52 31.418 51.4609 30.5742C50.9336 29.7188 50.6699 28.7637 50.6699 27.709C50.6699 26.6895 50.8691 25.793 51.2676 25.0195C51.666 24.2344 52.2402 23.584 52.9902 23.0684C53.7402 22.541 54.6426 22.1426 55.6973 21.873C56.752 21.6035 57.9297 21.4688 59.2305 21.4688H63.0098ZM74.0664 16.9688V33H70.8145V13.9805H73.9785L74.0664 16.9688ZM80.0078 13.875L79.9902 16.8984C79.7207 16.8398 79.4629 16.8047 79.2168 16.793C78.9824 16.7695 78.7129 16.7578 78.4082 16.7578C77.6582 16.7578 76.9961 16.875 76.4219 17.1094C75.8477 17.3438 75.3613 17.6719 74.9629 18.0938C74.5645 18.5156 74.248 19.0195 74.0137 19.6055C73.791 20.1797 73.6445 20.8125 73.5742 21.5039L72.6602 22.0312C72.6602 20.8828 72.7715 19.8047 72.9941 18.7969C73.2285 17.7891 73.5859 16.8984 74.0664 16.125C74.5469 15.3398 75.1562 14.7305 75.8945 14.2969C76.6445 13.8516 77.5352 13.6289 78.5664 13.6289C78.8008 13.6289 79.0703 13.6582 79.375 13.7168C79.6797 13.7637 79.8906 13.8164 80.0078 13.875ZM86.5469 13.9805V33H83.2773V13.9805H86.5469ZM83.0312 8.93555C83.0312 8.4082 83.1895 7.96289 83.5059 7.59961C83.834 7.23633 84.3145 7.05469 84.9473 7.05469C85.5684 7.05469 86.043 7.23633 86.3711 7.59961C86.7109 7.96289 86.8809 8.4082 86.8809 8.93555C86.8809 9.43945 86.7109 9.87305 86.3711 10.2363C86.043 10.5879 85.5684 10.7637 84.9473 10.7637C84.3145 10.7637 83.834 10.5879 83.5059 10.2363C83.1895 9.87305 83.0312 9.43945 83.0312 8.93555ZM99.7305 13.9805V16.4766H89.4473V13.9805H99.7305ZM92.9277 9.35742H96.1797V28.2891C96.1797 28.9336 96.2793 29.4199 96.4785 29.748C96.6777 30.0762 96.9355 30.293 97.252 30.3984C97.5684 30.5039 97.9082 30.5566 98.2715 30.5566C98.541 30.5566 98.8223 30.5332 99.1152 30.4863C99.4199 30.4277 99.6484 30.3809 99.8008 30.3457L99.8184 33C99.5605 33.082 99.2207 33.1582 98.7988 33.2285C98.3887 33.3105 97.8906 33.3516 97.3047 33.3516C96.5078 33.3516 95.7754 33.1934 95.1074 32.877C94.4395 32.5605 93.9062 32.0332 93.5078 31.2949C93.1211 30.5449 92.9277 29.5371 92.9277 28.2715V9.35742ZM108.889 31.0312L114.18 13.9805H117.66L110.031 35.9355C109.855 36.4043 109.621 36.9082 109.328 37.4473C109.047 37.998 108.684 38.5195 108.238 39.0117C107.793 39.5039 107.254 39.9023 106.621 40.207C106 40.5234 105.256 40.6816 104.389 40.6816C104.131 40.6816 103.803 40.6465 103.404 40.5762C103.006 40.5059 102.725 40.4473 102.561 40.4004L102.543 37.7637C102.637 37.7754 102.783 37.7871 102.982 37.7988C103.193 37.8223 103.34 37.834 103.422 37.834C104.16 37.834 104.787 37.7344 105.303 37.5352C105.818 37.3477 106.252 37.0254 106.604 36.5684C106.967 36.123 107.277 35.5078 107.535 34.7227L108.889 31.0312ZM105.004 13.9805L109.943 28.7461L110.787 32.1738L108.449 33.3691L101.453 13.9805H105.004Z" fill="#967ADC"/>
<defs>
<clipPath id="clip0_98_76">
<rect width="39" height="42" fill="white"/>
</clipPath>
</defs>
</svg>
