<svg width="32" height="35" viewBox="0 0 32 35" fill="none" xmlns="http://www.w3.org/2000/svg">
<g clip-path="url(#clip0_90_801)">
<path d="M10.7992 17.3451C10.7742 11.4666 16.016 6.87129 21.7354 8.02538C26.0633 8.86115 29.2449 12.9783 29.202 17.3451C29.2449 21.7118 26.0647 25.8304 21.7354 26.6647C16.016 27.8174 10.7729 23.2235 10.7992 17.3451ZM18.8265 17.3451C18.8071 19.2999 19.8095 21.2897 21.7354 22.0484C23.0548 22.5855 24.6788 22.4242 25.9124 21.5758C28.8365 19.6168 28.8365 15.0733 25.9124 13.1143C24.1513 11.8887 21.6495 12.1397 20.2262 13.6528C19.2363 14.6765 18.8348 15.9904 18.8265 17.3451Z" fill="#967ADC"/>
<path d="M31.8242 26.46C27.0366 35.9914 14.4155 37.7205 6.61662 30.7524C-3.40026 21.8058 -0.235285 5.20815 12.4384 0.861021C19.2059 -1.50606 27.3426 1.12606 30.9852 7.35507C31.4615 8.1628 31.2012 9.20751 30.4038 9.6899C29.7475 10.0882 28.9403 9.97457 28.4018 9.48376C26.4773 7.83185 24.1555 6.63429 21.6551 6.2739C14.601 5.12401 7.99697 10.6449 8.30433 17.9508C8.57707 24.8095 14.8946 29.6853 21.5346 28.6336C23.2666 28.3545 24.9308 27.7291 26.4385 26.7475C27.3938 26.1459 28.2702 25.3816 29.0649 24.5739L29.1494 24.4898C30.5297 23.1842 32.6203 24.7478 31.8242 26.4614V26.46Z" fill="#967ADC"/>
<path d="M8.86638 28.6252C7.87646 30.1775 6.66641 31.5405 5.39128 32.8475C4.61596 33.644 3.76726 34.3648 2.71504 34.7756C1.10901 35.3758 -0.477627 33.7281 0.132939 32.1267C0.551059 31.0666 1.27377 30.2168 2.06986 29.4413C3.37683 28.1666 4.73779 26.9592 6.2829 25.9762C8.00522 24.9357 9.90614 26.9228 8.865 28.6252H8.86638Z" fill="#967ADC"/>
</g>
<defs>
<clipPath id="clip0_90_801">
<rect width="32" height="35" fill="white"/>
</clipPath>
</defs>
</svg>
