<svg width="62" height="62" viewBox="0 0 62 62" fill="none" xmlns="http://www.w3.org/2000/svg">
<path opacity="0.5" d="M8.94972 53.0501C12.7329 56.8334 18.8219 56.8334 30.9998 56.8334C43.1777 56.8334 49.2668 56.8334 53.0499 53.0501C56.8332 49.2671 56.8332 43.1779 56.8332 31.0001C56.8332 18.8221 56.8332 12.7332 53.0499 8.94996C49.2668 5.16675 43.1777 5.16675 30.9998 5.16675C18.8219 5.16675 12.7329 5.16675 8.94972 8.94996C5.1665 12.7332 5.1665 18.8221 5.1665 31.0001C5.1665 43.1779 5.1665 49.2671 8.94972 53.0501Z" fill="#6338CD"/>
<path d="M38.7498 31C40.1766 31 41.3332 29.265 41.3332 27.125C41.3332 24.9849 40.1766 23.25 38.7498 23.25C37.3231 23.25 36.1665 24.9849 36.1665 27.125C36.1665 29.265 37.3231 31 38.7498 31Z" fill="#6338CD"/>
<path d="M23.2498 31C24.6766 31 25.8332 29.265 25.8332 27.125C25.8332 24.9849 24.6766 23.25 23.2498 23.25C21.8231 23.25 20.6665 24.9849 20.6665 27.125C20.6665 29.265 21.8231 31 23.2498 31Z" fill="#6338CD"/>
<path d="M31 44C33.2091 44 35 42.2091 35 40C35 37.7909 33.2091 36 31 36C28.7909 36 27 37.7909 27 40C27 42.2091 28.7909 44 31 44Z" fill="#6338CD"/>
</svg>
