<svg width="21" height="21" viewBox="0 0 21 21" fill="none" xmlns="http://www.w3.org/2000/svg">
<g clip-path="url(#clip0_279_211)">
<path fill-rule="evenodd" clip-rule="evenodd" d="M7 0.875C8.44974 0.875 9.625 2.05026 9.625 3.5V7C9.625 8.44974 8.44974 9.625 7 9.625H3.5C2.05026 9.625 0.875 8.44974 0.875 7V3.5C0.875 2.05026 2.05026 0.875 3.5 0.875H7ZM7 2.625C7.48324 2.625 7.875 3.01675 7.875 3.5V7C7.875 7.48324 7.48324 7.875 7 7.875H3.5C3.01675 7.875 2.625 7.48324 2.625 7V3.5C2.625 3.01675 3.01675 2.625 3.5 2.625H7Z" fill="#6338CD"/>
<path fill-rule="evenodd" clip-rule="evenodd" d="M7 11.375C8.44974 11.375 9.625 12.5502 9.625 14V17.5C9.625 18.9498 8.44974 20.125 7 20.125H3.5C2.05026 20.125 0.875 18.9498 0.875 17.5V14C0.875 12.5502 2.05026 11.375 3.5 11.375H7ZM7 13.125C7.48324 13.125 7.875 13.5167 7.875 14V17.5C7.875 17.9833 7.48324 18.375 7 18.375H3.5C3.01675 18.375 2.625 17.9833 2.625 17.5V14C2.625 13.5167 3.01675 13.125 3.5 13.125H7Z" fill="#6338CD"/>
<path fill-rule="evenodd" clip-rule="evenodd" d="M17.5 11.375C18.9498 11.375 20.125 12.5502 20.125 14V17.5C20.125 18.9498 18.9498 20.125 17.5 20.125H14C12.5502 20.125 11.375 18.9498 11.375 17.5V14C11.375 12.5502 12.5502 11.375 14 11.375H17.5ZM17.5 13.125C17.9833 13.125 18.375 13.5167 18.375 14V17.5C18.375 17.9833 17.9833 18.375 17.5 18.375H14C13.5167 18.375 13.125 17.9833 13.125 17.5V14C13.125 13.5167 13.5167 13.125 14 13.125H17.5Z" fill="#6338CD"/>
<path d="M13.7539 7.09766L14.8867 2.3125H15.5195L15.6641 3.10938L14.457 8H13.7773L13.7539 7.09766ZM13.1719 2.3125L14.1094 7.09766L14.0312 8H13.2734L12.0117 2.3125H13.1719ZM16.6602 7.07812L17.5859 2.3125H18.7461L17.4883 8H16.7305L16.6602 7.07812ZM15.875 2.3125L17.0156 7.11719L16.9844 8H16.3047L15.0898 3.10547L15.2461 2.3125H15.875Z" fill="#967ADC"/>
</g>
<defs>
<clipPath id="clip0_279_211">
<rect width="21" height="21" fill="white"/>
</clipPath>
</defs>
</svg>
